<svg width="472" height="452" viewBox="0 0 472 452" fill="none" xmlns="http://www.w3.org/2000/svg">
<g clip-path="url(#clip0_122_49)">
<path d="M15.4248 279.029C15.3517 278.943 15.2998 278.841 15.2733 278.732C5.42739 238.064 7.08276 195.459 20.0545 155.678C33.0262 115.896 56.8033 80.505 88.7294 53.4579C120.656 26.4109 159.473 8.7733 200.845 2.51576C242.218 -3.74178 284.515 1.62719 323.012 18.0228C323.099 18.0598 323.177 18.1135 323.244 18.1809C323.31 18.2484 323.362 18.3282 323.397 18.4158C323.433 18.5034 323.45 18.5972 323.45 18.6917C323.449 18.7861 323.429 18.8795 323.392 18.9665C323.355 19.0534 323.302 19.1322 323.234 19.1984C323.167 19.2646 323.087 19.3169 322.999 19.3522C322.912 19.3876 322.818 19.4053 322.723 19.4044C322.629 19.4035 322.536 19.3841 322.449 19.3471C243.688 -14.1435 154.315 -0.494688 89.2083 54.9675C24.4988 110.091 -3.29514 195.703 16.6727 278.394C16.7107 278.551 16.6946 278.716 16.6269 278.863C16.5592 279.011 16.4439 279.13 16.2996 279.204C16.1553 279.277 15.9905 279.3 15.8317 279.268C15.673 279.236 15.5296 279.152 15.4248 279.029Z" fill="#474D57"/>
<path d="M146.966 433.449C146.861 433.325 146.8 433.17 146.794 433.009C146.788 432.847 146.837 432.688 146.932 432.557C147.028 432.426 147.165 432.331 147.321 432.288C147.477 432.245 147.643 432.255 147.792 432.318C226.257 465.179 315.2 451.348 379.91 396.224C445.63 340.24 473.538 254.182 452.745 171.635C452.722 171.543 452.717 171.448 452.731 171.354C452.744 171.261 452.777 171.171 452.825 171.09C452.874 171.009 452.938 170.938 453.013 170.881C453.089 170.825 453.176 170.784 453.267 170.761C453.359 170.738 453.454 170.733 453.548 170.747C453.641 170.761 453.731 170.793 453.812 170.842C453.893 170.89 453.964 170.954 454.02 171.03C454.077 171.106 454.118 171.192 454.141 171.284C464.231 211.396 462.952 253.526 450.445 292.952C437.497 333.582 413.377 369.75 380.844 397.319C349.077 424.394 310.422 442.124 269.179 448.537C227.936 454.95 185.723 449.795 147.235 433.645C147.131 433.602 147.039 433.534 146.966 433.449Z" fill="#474D57"/>
<path d="M130.337 446.221C130.275 446.149 130.229 446.066 130.2 445.976C130.171 445.886 130.159 445.791 130.167 445.697C130.175 445.603 130.201 445.511 130.244 445.427C130.287 445.343 130.346 445.268 130.418 445.207L470.35 155.631C470.495 155.507 470.684 155.446 470.874 155.461C471.064 155.476 471.241 155.567 471.364 155.712C471.488 155.857 471.549 156.046 471.534 156.236C471.519 156.426 471.428 156.603 471.283 156.726L131.351 446.302C131.279 446.364 131.196 446.41 131.106 446.439C131.016 446.468 130.921 446.479 130.827 446.472C130.733 446.464 130.641 446.438 130.557 446.395C130.473 446.352 130.398 446.293 130.337 446.221Z" fill="#474D57"/>
<path d="M0.171876 293.42C0.110577 293.348 0.0640566 293.264 0.0349583 293.175C0.00585993 293.085 -0.00524558 292.99 0.0022901 292.896C0.00982578 292.802 0.0358504 292.71 0.0788721 292.626C0.121894 292.541 0.181073 292.467 0.253027 292.405L340.185 2.82954C340.33 2.70601 340.519 2.64522 340.709 2.66053C340.899 2.67583 341.075 2.76597 341.199 2.91116C341.323 3.05634 341.383 3.24468 341.368 3.4348C341.353 3.62492 341.263 3.80126 341.118 3.92507L1.18627 293.501C1.11434 293.562 1.03105 293.609 0.941138 293.638C0.851227 293.667 0.756464 293.678 0.662262 293.67C0.56806 293.663 0.476274 293.637 0.392132 293.594C0.30799 293.551 0.23314 293.492 0.171876 293.42Z" fill="#474D57"/>
<path d="M130.337 446.221C130.275 446.149 130.229 446.066 130.2 445.976C130.171 445.886 130.159 445.791 130.167 445.697C130.175 445.603 130.201 445.511 130.244 445.427C130.287 445.343 130.346 445.268 130.418 445.207L470.35 155.631C470.495 155.507 470.684 155.446 470.874 155.461C471.064 155.476 471.241 155.567 471.364 155.712C471.488 155.857 471.549 156.046 471.534 156.236C471.519 156.426 471.428 156.603 471.283 156.726L131.351 446.302C131.279 446.364 131.196 446.41 131.106 446.439C131.016 446.468 130.921 446.479 130.827 446.472C130.733 446.464 130.641 446.438 130.557 446.395C130.473 446.352 130.398 446.293 130.337 446.221Z" fill="#474D57"/>
<path d="M397.432 119.353H265.868V118.664C265.868 118.128 265.655 117.613 265.275 117.234C264.896 116.854 264.381 116.641 263.845 116.641H208.234C207.698 116.641 207.183 116.854 206.804 117.234C206.424 117.613 206.211 118.128 206.211 118.664V119.353H74.1043C71.744 119.353 69.4804 120.291 67.8115 121.96C66.1425 123.629 65.2049 125.892 65.2049 128.252V308.405C65.2049 310.766 66.1425 313.029 67.8115 314.698C69.4804 316.367 71.744 317.305 74.1043 317.305H397.432C399.793 317.305 402.056 316.367 403.725 314.698C405.394 313.029 406.332 310.766 406.332 308.405V128.252C406.332 125.892 405.394 123.629 403.725 121.96C402.056 120.291 399.793 119.353 397.432 119.353Z" fill="#3F3D56"/>
<path d="M81.1816 138.293C80.9608 138.294 80.7492 138.381 80.5931 138.538C80.437 138.694 80.3492 138.905 80.349 139.126V310.005C80.3492 310.226 80.437 310.438 80.5931 310.594C80.7492 310.75 80.9609 310.838 81.1816 310.838H390.354C390.575 310.838 390.787 310.75 390.943 310.594C391.099 310.438 391.187 310.226 391.187 310.005V139.126C391.187 138.905 391.099 138.694 390.943 138.537C390.787 138.381 390.575 138.293 390.354 138.293H81.1816Z" fill="#3ED2DB"/>
<path d="M235.497 130.2C237.294 130.2 238.751 128.743 238.751 126.946C238.751 125.149 237.294 123.692 235.497 123.692C233.7 123.692 232.243 125.149 232.243 126.946C232.243 128.743 233.7 130.2 235.497 130.2Z" fill="#3ED2DB"/>
<path d="M412.255 305.163H381.293V301.965C381.293 301.789 381.095 301.647 380.85 301.647H370.235C369.99 301.647 369.792 301.789 369.792 301.965V305.163H363.157V301.965C363.157 301.789 362.959 301.647 362.715 301.647H352.099C351.855 301.647 351.657 301.789 351.657 301.965V305.163H345.022V301.965C345.022 301.789 344.824 301.647 344.58 301.647H333.964C333.72 301.647 333.521 301.789 333.521 301.965V305.163H326.887V301.965C326.887 301.789 326.689 301.647 326.444 301.647H315.828C315.584 301.647 315.386 301.789 315.386 301.965V305.163H308.751V301.965C308.751 301.789 308.553 301.647 308.309 301.647H297.693C297.449 301.647 297.251 301.789 297.251 301.965V305.163H290.616V301.965C290.616 301.789 290.418 301.647 290.174 301.647H279.558C279.313 301.647 279.115 301.789 279.115 301.965V305.163H272.481V301.965C272.481 301.789 272.283 301.647 272.038 301.647H188.881C188.637 301.647 188.439 301.789 188.439 301.965V305.163H181.804V301.965C181.804 301.789 181.606 301.647 181.362 301.647H170.746C170.501 301.647 170.303 301.789 170.303 301.965V305.163H163.668V301.965C163.668 301.789 163.47 301.647 163.226 301.647H152.61C152.366 301.647 152.168 301.789 152.168 301.965V305.163H145.533V301.965C145.533 301.789 145.335 301.647 145.091 301.647H134.475C134.231 301.647 134.033 301.789 134.033 301.965V305.163H127.398V301.965C127.398 301.789 127.2 301.647 126.955 301.647H116.34C116.095 301.647 115.897 301.789 115.897 301.965V305.163H109.262V301.965C109.262 301.789 109.064 301.647 108.82 301.647H98.2043C97.96 301.647 97.762 301.789 97.762 301.965V305.163H91.1271V301.965C91.1271 301.789 90.929 301.647 90.6847 301.647H80.0689C79.8246 301.647 79.6266 301.789 79.6266 301.965V305.163H59.2796C53.4167 305.163 48.6638 308.579 48.6638 312.794V316.245C48.6638 320.46 53.4167 323.876 59.2796 323.876H412.255C418.118 323.876 422.871 320.46 422.871 316.245V312.794C422.871 308.579 418.118 305.163 412.255 305.163Z" fill="#3F3D56"/>
<path d="M199.772 210.184H108.387C108.197 210.184 108.014 210.108 107.879 209.974C107.744 209.839 107.668 209.656 107.668 209.465C107.668 209.274 107.744 209.092 107.879 208.957C108.014 208.822 108.197 208.746 108.387 208.746H199.772C199.963 208.746 200.146 208.822 200.281 208.957C200.415 209.092 200.491 209.274 200.491 209.465C200.491 209.656 200.415 209.839 200.281 209.974C200.146 210.108 199.963 210.184 199.772 210.184Z" fill="black"/>
<path d="M199.772 226.015H108.387C108.197 226.015 108.014 225.939 107.879 225.805C107.744 225.67 107.668 225.487 107.668 225.296C107.668 225.105 107.744 224.922 107.879 224.787C108.014 224.652 108.197 224.576 108.387 224.576H199.772C199.963 224.576 200.146 224.652 200.281 224.787C200.415 224.922 200.491 225.105 200.491 225.296C200.491 225.487 200.415 225.67 200.281 225.805C200.146 225.939 199.963 226.015 199.772 226.015Z" fill="black"/>
<path d="M199.772 241.845H108.387C108.292 241.846 108.199 241.827 108.111 241.791C108.023 241.755 107.944 241.702 107.877 241.635C107.81 241.569 107.757 241.489 107.72 241.402C107.684 241.314 107.665 241.221 107.665 241.126C107.665 241.031 107.684 240.938 107.72 240.85C107.757 240.763 107.81 240.683 107.877 240.616C107.944 240.55 108.023 240.497 108.111 240.461C108.199 240.425 108.292 240.406 108.387 240.406H199.772C199.867 240.406 199.96 240.425 200.048 240.461C200.136 240.497 200.215 240.55 200.282 240.616C200.349 240.683 200.402 240.763 200.439 240.85C200.475 240.938 200.494 241.031 200.494 241.126C200.494 241.221 200.475 241.314 200.439 241.402C200.402 241.489 200.349 241.569 200.282 241.635C200.215 241.702 200.136 241.755 200.048 241.791C199.96 241.827 199.867 241.846 199.772 241.845Z" fill="black"/>
<path d="M354.838 168.81H241.866C240.674 168.81 239.707 169.776 239.707 170.969V279.623C239.707 280.815 240.674 281.781 241.866 281.781H354.838C356.03 281.781 356.997 280.815 356.997 279.623V170.969C356.997 169.776 356.03 168.81 354.838 168.81Z" fill="white"/>
<path d="M263.194 228.598C263.581 221.756 266.385 215.273 271.107 210.306C275.829 205.339 282.162 202.211 288.976 201.478C295.79 200.746 302.643 202.458 308.312 206.308C313.982 210.158 318.1 215.897 319.932 222.501C320.282 222.489 320.632 222.475 320.985 222.475C322.191 222.486 323.387 222.69 324.529 223.077C338.913 227.801 335.126 249.277 319.986 249.277H282.777C280.145 249.285 277.539 248.761 275.115 247.737C272.69 246.714 270.497 245.212 268.667 243.321C266.836 241.43 265.407 239.189 264.463 236.733C263.519 234.276 263.08 231.655 263.173 229.025C263.179 228.883 263.186 228.741 263.194 228.598Z" fill="#3ED2DB"/>
<path d="M297.109 228.147V216.311H290.735V228.147H285.647L289.784 235.314L293.922 242.481L298.06 235.314L302.197 228.147H297.109Z" fill="white"/>
</g>
<defs>
<clipPath id="clip0_122_49">
<rect width="471.536" height="451.19" fill="white"/>
</clipPath>
</defs>
</svg>
