<svg width="431" height="164" viewBox="0 0 431 164" fill="none" xmlns="http://www.w3.org/2000/svg">
<g clip-path="url(#clip0_110_185)">
<path d="M179.576 138.817L144.328 146.768C144.328 146.768 137.14 145.95 143.956 135.915C144.568 135.011 145.295 134.039 146.149 132.983L164.416 124.017L164.247 122.812L160.357 95.3825L158.853 84.7662L170.319 74.1073L172.508 72.071L201.606 98.9868L201.398 99.3698L189.234 121.356L179.576 138.817Z" fill="#FFB7B7"/>
<path d="M166.543 130.823L131.295 138.774C130.765 138.714 130.255 138.543 129.797 138.271C129.339 137.999 128.944 137.633 128.638 137.197C128.332 136.762 128.121 136.266 128.021 135.743C127.92 135.22 127.932 134.681 128.055 134.163C128.226 133.138 128.547 132.144 129.008 131.212C130.127 128.983 131.506 126.894 133.116 124.989L151.383 116.024L149.143 100.226L148.028 92.3481L147.305 87.2547L145.82 76.7723L159.475 64.0771L174.345 77.8291L188.573 90.9929L186.653 94.4585L184.363 98.6006L173.377 118.471L171.138 122.518L166.543 130.823Z" fill="#FFB7B7"/>
<path d="M221.133 146.63C221.133 146.63 208.346 143.208 205.231 133.485C204.27 130.282 204.332 126.858 205.408 123.692L202.189 112.209L197.61 95.85L179.034 89.0358L177.859 89.726L161.516 99.3322L156.516 102.272L148.794 106.816L111.352 128.826C109.638 130.835 107.606 132.549 105.337 133.902C103.242 135.195 101.01 136.25 98.6811 137.049C91.9067 139.375 82.2795 140.322 69.4995 136.303L-2.99294 141.031L-0.601967 93.5117L60.9153 85.9271L156.577 47.2432L210.876 73.1732L229.959 116.067L221.133 146.63Z" fill="#FFB7B7"/>
<path d="M427.437 0H181.593C180.649 0.00105728 179.743 0.376786 179.075 1.04474C178.407 1.71269 178.031 2.61833 178.03 3.56296V149.135C178.031 150.08 178.407 150.985 179.075 151.653C179.743 152.321 180.649 152.697 181.593 152.698H427.437C428.382 152.697 429.287 152.321 429.955 151.653C430.623 150.985 430.999 150.08 431 149.135V3.56294C430.999 2.61832 430.623 1.71272 429.955 1.04478C429.287 0.37684 428.382 0.00109906 427.437 0Z" fill="white"/>
<path d="M427.437 0H181.593C180.649 0.00105728 179.743 0.376786 179.075 1.04474C178.407 1.71269 178.031 2.61833 178.03 3.56296V149.135C178.031 150.08 178.407 150.985 179.075 151.653C179.743 152.321 180.649 152.697 181.593 152.698H427.437C428.382 152.697 429.287 152.321 429.955 151.653C430.623 150.985 430.999 150.08 431 149.135V3.56294C430.999 2.61832 430.623 1.71272 429.955 1.04478C429.287 0.37684 428.382 0.00109906 427.437 0ZM429.982 149.135C429.982 149.81 429.714 150.457 429.236 150.934C428.759 151.411 428.112 151.68 427.437 151.68H181.593C180.918 151.68 180.271 151.411 179.794 150.934C179.317 150.457 179.049 149.81 179.048 149.135V3.56294C179.049 2.88806 179.317 2.24091 179.794 1.7637C180.271 1.28649 180.918 1.01827 181.593 1.01798H427.437C428.112 1.01827 428.759 1.28649 429.236 1.7637C429.714 2.24091 429.982 2.88806 429.982 3.56294V149.135Z" fill="#3F3D56"/>
<path d="M205.514 19.8518C204.306 19.8518 203.125 19.4936 202.121 18.8224C201.116 18.1513 200.333 17.1974 199.871 16.0813C199.409 14.9652 199.288 13.7371 199.524 12.5523C199.759 11.3675 200.341 10.2792 201.195 9.42496C202.049 8.57075 203.138 7.98903 204.322 7.75335C205.507 7.51768 206.735 7.63863 207.851 8.10092C208.968 8.56322 209.921 9.34609 210.593 10.3505C211.264 11.355 211.622 12.5359 211.622 13.7439C211.622 15.3638 210.978 16.9174 209.833 18.0629C208.688 19.2083 207.134 19.8518 205.514 19.8518ZM205.514 8.65396C204.507 8.65396 203.523 8.95249 202.686 9.51178C201.849 10.0711 201.197 10.866 200.812 11.7961C200.426 12.7261 200.326 13.7495 200.522 14.7369C200.718 15.7242 201.203 16.6312 201.915 17.343C202.627 18.0549 203.534 18.5396 204.521 18.736C205.508 18.9324 206.532 18.8316 207.462 18.4464C208.392 18.0611 209.187 17.4087 209.746 16.5717C210.306 15.7347 210.604 14.7506 210.604 13.7439C210.604 13.0755 210.472 12.4136 210.217 11.7961C209.961 11.1785 209.586 10.6174 209.113 10.1448C208.641 9.67213 208.079 9.29721 207.462 9.04142C206.844 8.78563 206.183 8.65396 205.514 8.65396Z" fill="#24C7D6"/>
<path d="M196.02 13.7439C196.02 12.5788 196.384 11.4428 197.06 10.4941C197.737 9.54536 198.692 8.83122 199.793 8.45113C198.95 8.16019 198.049 8.07499 197.167 8.20261C196.284 8.33023 195.444 8.66697 194.718 9.18481C193.991 9.70264 193.399 10.3866 192.99 11.1796C192.582 11.9726 192.369 12.8518 192.369 13.7439C192.369 14.636 192.582 15.5152 192.99 16.3083C193.399 17.1013 193.991 17.7852 194.718 18.3031C195.444 18.8209 196.284 19.1577 197.167 19.2853C198.049 19.4129 198.95 19.3277 199.793 19.0367C198.692 18.6567 197.737 17.9425 197.06 16.9938C196.384 16.0451 196.02 14.909 196.02 13.7439Z" fill="#24C7D6"/>
<path d="M230.273 85.908C229.059 85.9066 227.895 85.4235 227.036 84.5647C226.177 83.7059 225.694 82.5416 225.693 81.327V67.5842C225.694 66.3703 226.177 65.2065 227.036 64.3486C227.895 63.4907 229.059 63.0088 230.273 63.0088C231.487 63.0088 232.652 63.4907 233.511 64.3486C234.37 65.2065 234.853 66.3703 234.854 67.5842V81.327C234.853 82.5416 234.37 83.7059 233.511 84.5647C232.652 85.4235 231.488 85.9066 230.273 85.908Z" fill="#24C7D6"/>
<path d="M242.489 85.908C241.275 85.9066 240.11 85.4235 239.252 84.5647C238.393 83.7059 237.91 82.5416 237.908 81.327V67.5842C237.91 66.3703 238.393 65.2065 239.252 64.3486C240.111 63.4907 241.275 63.0088 242.489 63.0088C243.703 63.0088 244.868 63.4907 245.726 64.3486C246.585 65.2065 247.069 66.3703 247.07 67.5842V81.327C247.069 82.5416 246.586 83.7059 245.727 84.5647C244.868 85.4235 243.704 85.9066 242.489 85.908Z" fill="#24C7D6"/>
<path d="M254.705 85.908C253.491 85.9066 252.326 85.4235 251.467 84.5647C250.609 83.7059 250.126 82.5416 250.124 81.327V67.5842C250.126 66.3703 250.609 65.2065 251.468 64.3486C252.327 63.4907 253.491 63.0088 254.705 63.0088C255.919 63.0088 257.083 63.4907 257.942 64.3486C258.801 65.2065 259.285 66.3703 259.286 67.5842V81.327C259.285 82.5416 258.802 83.7059 257.943 84.5647C257.084 85.4235 255.92 85.9066 254.705 85.908Z" fill="#24C7D6"/>
<path d="M273.538 85.908C272.323 85.9066 271.159 85.4235 270.3 84.5647C269.441 83.7059 268.958 82.5416 268.957 81.327V67.5842C268.958 66.3703 269.442 65.2065 270.301 64.3486C271.159 63.4907 272.324 63.0088 273.538 63.0088C274.752 63.0088 275.916 63.4907 276.775 64.3486C277.634 65.2065 278.117 66.3703 278.119 67.5842V81.327C278.117 82.5416 277.634 83.7059 276.775 84.5647C275.917 85.4235 274.752 85.9066 273.538 85.908Z" fill="#24C7D6"/>
<path d="M285.754 85.908C284.539 85.9066 283.375 85.4235 282.516 84.5647C281.657 83.7059 281.174 82.5416 281.173 81.327V67.5842C281.174 66.3703 281.657 65.2065 282.516 64.3486C283.375 63.4907 284.54 63.0088 285.754 63.0088C286.968 63.0088 288.132 63.4907 288.991 64.3486C289.85 65.2065 290.333 66.3703 290.335 67.5842V81.327C290.333 82.5416 289.85 83.7059 288.991 84.5647C288.133 85.4235 286.968 85.9066 285.754 85.908Z" fill="#24C7D6"/>
<path d="M297.969 85.908C296.755 85.9066 295.591 85.4235 294.732 84.5647C293.873 83.7059 293.39 82.5416 293.389 81.327V67.5842C293.39 66.3703 293.873 65.2065 294.732 64.3486C295.591 63.4907 296.755 63.0088 297.969 63.0088C299.183 63.0088 300.348 63.4907 301.207 64.3486C302.066 65.2065 302.549 66.3703 302.55 67.5842V81.327C302.549 82.5416 302.066 83.7059 301.207 84.5647C300.348 85.4235 299.184 85.9066 297.969 85.908Z" fill="#24C7D6"/>
<path d="M316.802 85.908C315.588 85.9066 314.423 85.4235 313.564 84.5647C312.706 83.7059 312.223 82.5416 312.221 81.327V67.5842C312.223 66.3703 312.706 65.2065 313.565 64.3486C314.424 63.4907 315.588 63.0088 316.802 63.0088C318.016 63.0088 319.181 63.4907 320.039 64.3486C320.898 65.2065 321.382 66.3703 321.383 67.5842V81.327C321.382 82.5416 320.899 83.7059 320.04 84.5647C319.181 85.4235 318.017 85.9066 316.802 85.908Z" fill="#24C7D6"/>
<path d="M329.018 85.908C327.803 85.9066 326.639 85.4235 325.78 84.5647C324.922 83.7059 324.438 82.5416 324.437 81.327V67.5842C324.439 66.3703 324.922 65.2065 325.781 64.3486C326.64 63.4907 327.804 63.0088 329.018 63.0088C330.232 63.0088 331.396 63.4907 332.255 64.3486C333.114 65.2065 333.597 66.3703 333.599 67.5842V81.327C333.598 82.5416 333.114 83.7059 332.256 84.5647C331.397 85.4235 330.233 85.9066 329.018 85.908Z" fill="#24C7D6"/>
<path d="M341.234 85.908C340.019 85.9066 338.855 85.4235 337.996 84.5647C337.137 83.7059 336.654 82.5416 336.653 81.327V67.5842C336.654 66.3703 337.138 65.2065 337.997 64.3486C338.855 63.4907 340.02 63.0088 341.234 63.0088C342.448 63.0088 343.612 63.4907 344.471 64.3486C345.33 65.2065 345.813 66.3703 345.815 67.5842V81.327C345.813 82.5416 345.33 83.7059 344.471 84.5647C343.613 85.4235 342.448 85.9066 341.234 85.908Z" fill="#24C7D6"/>
<path d="M360.067 85.908C358.852 85.9066 357.688 85.4235 356.829 84.5647C355.97 83.7059 355.487 82.5416 355.486 81.327V67.5842C355.487 66.3703 355.97 65.2065 356.829 64.3486C357.688 63.4907 358.853 63.0088 360.067 63.0088C361.281 63.0088 362.445 63.4907 363.304 64.3486C364.163 65.2065 364.646 66.3703 364.648 67.5842V81.327C364.646 82.5416 364.163 83.7059 363.304 84.5647C362.445 85.4235 361.281 85.9066 360.067 85.908Z" fill="#24C7D6"/>
<path d="M372.282 85.908C371.068 85.9066 369.904 85.4235 369.045 84.5647C368.186 83.7059 367.703 82.5416 367.701 81.327V67.5842C367.703 66.3703 368.186 65.2065 369.045 64.3486C369.904 63.4907 371.068 63.0088 372.282 63.0088C373.496 63.0088 374.661 63.4907 375.52 64.3486C376.379 65.2065 376.862 66.3703 376.863 67.5842V81.327C376.862 82.5416 376.379 83.7059 375.52 84.5647C374.661 85.4235 373.497 85.9066 372.282 85.908Z" fill="#24C7D6"/>
<path d="M384.498 85.908C383.284 85.9066 382.119 85.4235 381.261 84.5647C380.402 83.7059 379.919 82.5416 379.917 81.327V67.5842C379.919 66.3703 380.402 65.2065 381.261 64.3486C382.12 63.4907 383.284 63.0088 384.498 63.0088C385.712 63.0088 386.877 63.4907 387.735 64.3486C388.594 65.2065 389.078 66.3703 389.079 67.5842V81.327C389.078 82.5416 388.595 83.7059 387.736 84.5647C386.877 85.4235 385.713 85.9066 384.498 85.908Z" fill="#24C7D6"/>
<path d="M261.331 136.892H195.447C195.042 136.893 194.642 136.814 194.268 136.659C193.894 136.505 193.554 136.278 193.268 135.992C192.981 135.706 192.754 135.367 192.599 134.993C192.444 134.619 192.364 134.219 192.364 133.814C192.364 133.41 192.444 133.009 192.599 132.635C192.754 132.261 192.981 131.922 193.268 131.636C193.554 131.35 193.894 131.124 194.268 130.969C194.642 130.815 195.042 130.735 195.447 130.736H261.331C262.147 130.737 262.928 131.062 263.505 131.639C264.081 132.216 264.405 132.999 264.405 133.814C264.405 134.63 264.081 135.412 263.505 135.989C262.928 136.566 262.147 136.891 261.331 136.892Z" fill="#E6E6E6"/>
<path d="M240.208 123.658H216.57C215.754 123.658 214.971 123.334 214.394 122.757C213.816 122.18 213.492 121.397 213.492 120.58C213.492 119.764 213.816 118.981 214.394 118.404C214.971 117.826 215.754 117.502 216.57 117.502H240.208C241.024 117.502 241.807 117.826 242.384 118.404C242.962 118.981 243.286 119.764 243.286 120.58C243.286 121.397 242.962 122.18 242.384 122.757C241.807 123.334 241.024 123.658 240.208 123.658Z" fill="#E6E6E6"/>
<path d="M429.799 30.4277H178.865V31.4457H429.799V30.4277Z" fill="#3F3D56"/>
<path opacity="0.15" d="M150.173 133.656L149.639 132.451L171.394 122.803L176.581 104.608L168.763 98.2876L169.591 97.262L178.087 104.131L172.493 123.758L150.173 133.656Z" fill="black"/>
<path d="M209.678 114.456C208.162 114.748 206.5 114.989 204.664 115.174C195.184 116.122 175.144 117.382 173.377 117.471C161.507 118.029 154.045 118.023 154.045 118.023L129.008 130.213L123.289 132.998L76.9383 137.907L139.702 84.3884L147.305 86.2548L160.174 89.4198L174.351 92.9053L186.653 93.4586L202.571 94.1726L215.437 94.7504C217.666 94.8278 219.774 95.784 221.3 97.4104C222.827 99.0368 223.648 101.201 223.584 103.431C223.382 107.675 220.438 112.365 209.678 114.456Z" fill="#FFB7B7"/>
<path opacity="0.15" d="M214.557 112.229C214.352 112.166 209.518 110.646 207.984 106.391C206.953 103.53 207.679 100.183 210.142 96.4417L211.243 97.1665C209.023 100.538 208.343 103.488 209.221 105.936C210.525 109.568 214.899 110.955 214.943 110.968L214.557 112.229Z" fill="black"/>
<path opacity="0.15" d="M152.018 119.275L129.868 130.063L130.445 131.248L152.595 120.46L152.018 119.275Z" fill="black"/>
<path opacity="0.15" d="M143.747 88.6854L175.123 76.3108L175.607 77.5375L148.493 88.2312L171.537 92.5356L171.294 93.8316L143.747 88.6854Z" fill="black"/>
<path d="M330.023 136.19L332.575 140.392L335.149 136.19H335.985L332.96 141.096V144H332.19V141.074L329.176 136.19H330.023ZM338.455 144.11C337.905 144.11 337.414 143.974 336.981 143.703C336.549 143.432 336.208 143.069 335.958 142.614C335.709 142.159 335.584 141.661 335.584 141.118C335.584 140.583 335.705 140.091 335.947 139.644C336.197 139.197 336.538 138.841 336.97 138.577C337.403 138.306 337.894 138.17 338.444 138.17C339.009 138.17 339.504 138.306 339.929 138.577C340.355 138.848 340.685 139.208 340.919 139.655C341.161 140.095 341.282 140.579 341.282 141.107C341.282 141.224 341.279 141.323 341.271 141.404H336.365C336.402 141.815 336.519 142.181 336.717 142.504C336.915 142.819 337.168 143.072 337.476 143.263C337.784 143.446 338.122 143.538 338.488 143.538C338.862 143.538 339.214 143.443 339.544 143.252C339.874 143.061 340.109 142.812 340.248 142.504L340.897 142.68C340.78 142.959 340.597 143.208 340.347 143.428C340.105 143.641 339.823 143.809 339.5 143.934C339.178 144.051 338.829 144.11 338.455 144.11ZM336.343 140.865H340.578C340.549 140.454 340.435 140.091 340.237 139.776C340.039 139.453 339.786 139.204 339.478 139.028C339.17 138.845 338.829 138.753 338.455 138.753C338.081 138.753 337.74 138.845 337.432 139.028C337.124 139.204 336.871 139.453 336.673 139.776C336.483 140.091 336.373 140.454 336.343 140.865ZM344.317 144.11C343.848 144.11 343.412 144.033 343.008 143.879C342.612 143.718 342.264 143.483 341.963 143.175L342.271 142.647C342.594 142.948 342.917 143.168 343.239 143.307C343.569 143.439 343.918 143.505 344.284 143.505C344.724 143.505 345.084 143.417 345.362 143.241C345.648 143.058 345.791 142.797 345.791 142.46C345.791 142.233 345.722 142.06 345.582 141.943C345.45 141.818 345.256 141.719 344.999 141.646C344.75 141.573 344.449 141.488 344.097 141.393C343.701 141.283 343.368 141.169 343.096 141.052C342.832 140.927 342.631 140.773 342.491 140.59C342.359 140.399 342.293 140.154 342.293 139.853C342.293 139.486 342.385 139.178 342.568 138.929C342.759 138.68 343.016 138.493 343.338 138.368C343.668 138.236 344.035 138.17 344.438 138.17C344.878 138.17 345.267 138.24 345.604 138.379C345.942 138.518 346.217 138.713 346.429 138.962L346.066 139.468C345.868 139.233 345.623 139.061 345.329 138.951C345.043 138.834 344.732 138.775 344.394 138.775C344.16 138.775 343.936 138.808 343.723 138.874C343.511 138.933 343.335 139.035 343.195 139.182C343.063 139.321 342.997 139.516 342.997 139.765C342.997 140.073 343.111 140.286 343.338 140.403C343.566 140.52 343.91 140.645 344.372 140.777C344.805 140.894 345.183 141.012 345.505 141.129C345.828 141.246 346.077 141.404 346.253 141.602C346.429 141.793 346.517 142.06 346.517 142.405C346.517 142.94 346.316 143.358 345.912 143.659C345.509 143.96 344.977 144.11 344.317 144.11ZM353.262 136.245H353.988L355.088 139.017L356.199 136.245H356.936L355.572 139.578L357.068 143.109L359.895 136.19H360.731L357.42 144H356.738L355.099 140.139L353.449 144H352.778L349.478 136.19H350.303L353.141 143.109L354.626 139.578L353.262 136.245ZM363.409 144.11C362.859 144.11 362.368 143.974 361.935 143.703C361.503 143.432 361.162 143.069 360.912 142.614C360.663 142.159 360.538 141.661 360.538 141.118C360.538 140.583 360.659 140.091 360.901 139.644C361.151 139.197 361.492 138.841 361.924 138.577C362.357 138.306 362.848 138.17 363.398 138.17C363.963 138.17 364.458 138.306 364.883 138.577C365.309 138.848 365.639 139.208 365.873 139.655C366.115 140.095 366.236 140.579 366.236 141.107C366.236 141.224 366.233 141.323 366.225 141.404H361.319C361.356 141.815 361.473 142.181 361.671 142.504C361.869 142.819 362.122 143.072 362.43 143.263C362.738 143.446 363.076 143.538 363.442 143.538C363.816 143.538 364.168 143.443 364.498 143.252C364.828 143.061 365.063 142.812 365.202 142.504L365.851 142.68C365.734 142.959 365.551 143.208 365.301 143.428C365.059 143.641 364.777 143.809 364.454 143.934C364.132 144.051 363.783 144.11 363.409 144.11ZM361.297 140.865H365.532C365.503 140.454 365.389 140.091 365.191 139.776C364.993 139.453 364.74 139.204 364.432 139.028C364.124 138.845 363.783 138.753 363.409 138.753C363.035 138.753 362.694 138.845 362.386 139.028C362.078 139.204 361.825 139.453 361.627 139.776C361.437 140.091 361.327 140.454 361.297 140.865ZM370.348 144V136.19H373.582C373.919 136.19 374.227 136.26 374.506 136.399C374.792 136.538 375.038 136.729 375.243 136.971C375.456 137.206 375.617 137.47 375.727 137.763C375.844 138.049 375.903 138.342 375.903 138.643C375.903 139.068 375.808 139.472 375.617 139.853C375.426 140.227 375.162 140.531 374.825 140.766C374.488 141.001 374.095 141.118 373.648 141.118H371.118V144H370.348ZM371.118 140.436H373.615C373.923 140.436 374.191 140.352 374.418 140.183C374.645 140.014 374.821 139.794 374.946 139.523C375.071 139.252 375.133 138.958 375.133 138.643C375.133 138.32 375.06 138.027 374.913 137.763C374.766 137.492 374.572 137.275 374.33 137.114C374.095 136.953 373.835 136.872 373.549 136.872H371.118V140.436ZM376.51 142.35C376.51 141.998 376.613 141.694 376.818 141.437C377.024 141.173 377.306 140.968 377.665 140.821C378.032 140.674 378.454 140.601 378.93 140.601C379.209 140.601 379.499 140.627 379.799 140.678C380.1 140.722 380.368 140.784 380.602 140.865V140.381C380.602 139.897 380.459 139.512 380.173 139.226C379.887 138.94 379.491 138.797 378.985 138.797C378.685 138.797 378.384 138.856 378.083 138.973C377.783 139.083 377.471 139.248 377.148 139.468L376.862 138.94C377.236 138.683 377.603 138.493 377.962 138.368C378.322 138.236 378.688 138.17 379.062 138.17C379.766 138.17 380.324 138.372 380.734 138.775C381.145 139.178 381.35 139.736 381.35 140.447V143.098C381.35 143.296 381.442 143.399 381.625 143.406V144C381.464 144.022 381.35 144.029 381.284 144.022C381.101 144.015 380.962 143.956 380.866 143.846C380.771 143.736 380.72 143.619 380.712 143.494L380.701 143.076C380.445 143.406 380.111 143.663 379.7 143.846C379.29 144.022 378.872 144.11 378.446 144.11C378.072 144.11 377.739 144.033 377.445 143.879C377.152 143.718 376.921 143.505 376.752 143.241C376.591 142.97 376.51 142.673 376.51 142.35ZM380.349 142.79C380.518 142.592 380.602 142.409 380.602 142.24V141.404C380.096 141.206 379.568 141.107 379.018 141.107C378.483 141.107 378.05 141.213 377.72 141.426C377.39 141.639 377.225 141.928 377.225 142.295C377.225 142.61 377.346 142.896 377.588 143.153C377.838 143.41 378.182 143.538 378.622 143.538C378.982 143.538 379.315 143.468 379.623 143.329C379.939 143.19 380.181 143.01 380.349 142.79ZM383.125 145.76C383.227 145.767 383.326 145.771 383.422 145.771C383.517 145.778 383.587 145.775 383.631 145.76C383.719 145.753 383.799 145.701 383.873 145.606C383.953 145.518 384.049 145.349 384.159 145.1C384.276 144.858 384.434 144.491 384.632 144L382.135 138.269H382.927L385.028 143.23L386.964 138.269H387.712L384.742 145.661C384.661 145.874 384.525 146.057 384.335 146.211C384.144 146.365 383.891 146.446 383.576 146.453C383.51 146.46 383.44 146.46 383.367 146.453C383.293 146.453 383.213 146.446 383.125 146.431V145.76ZM397.288 141.987C397.288 142.376 397.189 142.724 396.991 143.032C396.793 143.333 396.525 143.571 396.188 143.747C395.858 143.916 395.495 144 395.099 144H391.414V136.19H395.176C395.542 136.19 395.858 136.289 396.122 136.487C396.386 136.678 396.591 136.927 396.738 137.235C396.884 137.536 396.958 137.851 396.958 138.181C396.958 138.57 396.859 138.929 396.661 139.259C396.463 139.589 396.188 139.835 395.836 139.996C396.276 140.128 396.628 140.374 396.892 140.733C397.156 141.092 397.288 141.51 397.288 141.987ZM392.184 136.861V139.743H394.868C395.124 139.743 395.352 139.677 395.55 139.545C395.755 139.406 395.913 139.23 396.023 139.017C396.14 138.797 396.199 138.559 396.199 138.302C396.199 138.038 396.144 137.796 396.034 137.576C395.924 137.356 395.773 137.184 395.583 137.059C395.392 136.927 395.176 136.861 394.934 136.861H392.184ZM396.518 141.855C396.518 141.598 396.459 141.356 396.342 141.129C396.224 140.902 396.063 140.718 395.858 140.579C395.66 140.44 395.432 140.37 395.176 140.37H392.184V143.329H395.099C395.363 143.329 395.601 143.259 395.814 143.12C396.026 142.981 396.195 142.801 396.32 142.581C396.452 142.354 396.518 142.112 396.518 141.855ZM401.061 144.11C400.511 144.11 400.019 143.974 399.587 143.703C399.154 143.432 398.813 143.069 398.564 142.614C398.314 142.159 398.19 141.661 398.19 141.118C398.19 140.583 398.311 140.091 398.553 139.644C398.802 139.197 399.143 138.841 399.576 138.577C400.008 138.306 400.5 138.17 401.05 138.17C401.614 138.17 402.109 138.306 402.535 138.577C402.96 138.848 403.29 139.208 403.525 139.655C403.767 140.095 403.888 140.579 403.888 141.107C403.888 141.224 403.884 141.323 403.877 141.404H398.971C399.007 141.815 399.125 142.181 399.323 142.504C399.521 142.819 399.774 143.072 400.082 143.263C400.39 143.446 400.727 143.538 401.094 143.538C401.468 143.538 401.82 143.443 402.15 143.252C402.48 143.061 402.714 142.812 402.854 142.504L403.503 142.68C403.385 142.959 403.202 143.208 402.953 143.428C402.711 143.641 402.428 143.809 402.106 143.934C401.783 144.051 401.435 144.11 401.061 144.11ZM398.949 140.865H403.184C403.154 140.454 403.041 140.091 402.843 139.776C402.645 139.453 402.392 139.204 402.084 139.028C401.776 138.845 401.435 138.753 401.061 138.753C400.687 138.753 400.346 138.845 400.038 139.028C399.73 139.204 399.477 139.453 399.279 139.776C399.088 140.091 398.978 140.454 398.949 140.865ZM407.738 143.725C407.65 143.762 407.489 143.828 407.254 143.923C407.019 144.018 406.748 144.066 406.44 144.066C406.117 144.066 405.835 143.974 405.593 143.791C405.351 143.608 405.23 143.333 405.23 142.966V138.863H404.438V138.269H405.23V136.333H405.978V138.269H407.298V138.863H405.978V142.757C405.993 142.97 406.066 143.127 406.198 143.23C406.337 143.325 406.495 143.373 406.671 143.373C406.876 143.373 407.06 143.34 407.221 143.274C407.39 143.201 407.496 143.149 407.54 143.12L407.738 143.725ZM411.423 143.725C411.335 143.762 411.173 143.828 410.939 143.923C410.704 144.018 410.433 144.066 410.125 144.066C409.802 144.066 409.52 143.974 409.278 143.791C409.036 143.608 408.915 143.333 408.915 142.966V138.863H408.123V138.269H408.915V136.333H409.663V138.269H410.983V138.863H409.663V142.757C409.677 142.97 409.751 143.127 409.883 143.23C410.022 143.325 410.18 143.373 410.356 143.373C410.561 143.373 410.744 143.34 410.906 143.274C411.074 143.201 411.181 143.149 411.225 143.12L411.423 143.725ZM414.736 144.11C414.186 144.11 413.694 143.974 413.262 143.703C412.829 143.432 412.488 143.069 412.239 142.614C411.989 142.159 411.865 141.661 411.865 141.118C411.865 140.583 411.986 140.091 412.228 139.644C412.477 139.197 412.818 138.841 413.251 138.577C413.683 138.306 414.175 138.17 414.725 138.17C415.289 138.17 415.784 138.306 416.21 138.577C416.635 138.848 416.965 139.208 417.2 139.655C417.442 140.095 417.563 140.579 417.563 141.107C417.563 141.224 417.559 141.323 417.552 141.404H412.646C412.682 141.815 412.8 142.181 412.998 142.504C413.196 142.819 413.449 143.072 413.757 143.263C414.065 143.446 414.402 143.538 414.769 143.538C415.143 143.538 415.495 143.443 415.825 143.252C416.155 143.061 416.389 142.812 416.529 142.504L417.178 142.68C417.06 142.959 416.877 143.208 416.628 143.428C416.386 143.641 416.103 143.809 415.781 143.934C415.458 144.051 415.11 144.11 414.736 144.11ZM412.624 140.865H416.859C416.829 140.454 416.716 140.091 416.518 139.776C416.32 139.453 416.067 139.204 415.759 139.028C415.451 138.845 415.11 138.753 414.736 138.753C414.362 138.753 414.021 138.845 413.713 139.028C413.405 139.204 413.152 139.453 412.954 139.776C412.763 140.091 412.653 140.454 412.624 140.865ZM421.577 138.929C421.078 138.944 420.638 139.083 420.257 139.347C419.883 139.611 419.619 139.974 419.465 140.436V144H418.717V138.269H419.421V139.644C419.619 139.241 419.879 138.914 420.202 138.665C420.532 138.416 420.88 138.276 421.247 138.247C421.32 138.24 421.382 138.236 421.434 138.236C421.485 138.236 421.533 138.24 421.577 138.247V138.929Z" fill="black"/>
<path d="M297.686 16.051C297.965 16.095 298.218 16.2087 298.445 16.392C298.68 16.5753 298.863 16.8027 298.995 17.074C299.134 17.3453 299.204 17.635 299.204 17.943C299.204 18.3317 299.105 18.6837 298.907 18.999C298.709 19.307 298.419 19.5527 298.038 19.736C297.664 19.912 297.22 20 296.707 20H293.847V12.333H296.597C297.118 12.333 297.561 12.421 297.928 12.597C298.295 12.7657 298.57 12.9967 298.753 13.29C298.936 13.5833 299.028 13.9133 299.028 14.28C299.028 14.7347 298.903 15.1123 298.654 15.413C298.412 15.7063 298.089 15.919 297.686 16.051ZM294.848 15.644H296.531C297 15.644 297.363 15.534 297.62 15.314C297.877 15.094 298.005 14.7897 298.005 14.401C298.005 14.0123 297.877 13.708 297.62 13.488C297.363 13.268 296.993 13.158 296.509 13.158H294.848V15.644ZM296.619 19.175C297.118 19.175 297.506 19.0577 297.785 18.823C298.064 18.5883 298.203 18.262 298.203 17.844C298.203 17.4187 298.056 17.085 297.763 16.843C297.47 16.5937 297.077 16.469 296.586 16.469H294.848V19.175H296.619ZM306.621 20H305.62L301.594 13.895V20H300.593V12.322H301.594L305.62 18.416V12.322H306.621V20ZM312.166 16.051C312.445 16.095 312.698 16.2087 312.925 16.392C313.16 16.5753 313.343 16.8027 313.475 17.074C313.615 17.3453 313.684 17.635 313.684 17.943C313.684 18.3317 313.585 18.6837 313.387 18.999C313.189 19.307 312.9 19.5527 312.518 19.736C312.144 19.912 311.701 20 311.187 20H308.327V12.333H311.077C311.598 12.333 312.042 12.421 312.408 12.597C312.775 12.7657 313.05 12.9967 313.233 13.29C313.417 13.5833 313.508 13.9133 313.508 14.28C313.508 14.7347 313.384 15.1123 313.134 15.413C312.892 15.7063 312.57 15.919 312.166 16.051ZM309.328 15.644H311.011C311.481 15.644 311.844 15.534 312.1 15.314C312.357 15.094 312.485 14.7897 312.485 14.401C312.485 14.0123 312.357 13.708 312.1 13.488C311.844 13.268 311.473 13.158 310.989 13.158H309.328V15.644ZM311.099 19.175C311.598 19.175 311.987 19.0577 312.265 18.823C312.544 18.5883 312.683 18.262 312.683 17.844C312.683 17.4187 312.537 17.085 312.243 16.843C311.95 16.5937 311.558 16.469 311.066 16.469H309.328V19.175H311.099ZM314.7 16.161C314.7 15.413 314.868 14.742 315.206 14.148C315.543 13.5467 316.001 13.0773 316.581 12.74C317.167 12.4027 317.816 12.234 318.528 12.234C319.364 12.234 320.093 12.4357 320.717 12.839C321.34 13.2423 321.795 13.8143 322.081 14.555H320.882C320.669 14.093 320.361 13.7373 319.958 13.488C319.562 13.2387 319.085 13.114 318.528 13.114C317.992 13.114 317.512 13.2387 317.087 13.488C316.661 13.7373 316.328 14.093 316.086 14.555C315.844 15.0097 315.723 15.545 315.723 16.161C315.723 16.7697 315.844 17.305 316.086 17.767C316.328 18.2217 316.661 18.5737 317.087 18.823C317.512 19.0723 317.992 19.197 318.528 19.197C319.085 19.197 319.562 19.076 319.958 18.834C320.361 18.5847 320.669 18.229 320.882 17.767H322.081C321.795 18.5003 321.34 19.0687 320.717 19.472C320.093 19.868 319.364 20.066 318.528 20.066C317.816 20.066 317.167 19.901 316.581 19.571C316.001 19.2337 315.543 18.768 315.206 18.174C314.868 17.58 314.7 16.909 314.7 16.161Z" fill="black"/>
</g>
<defs>
<clipPath id="clip0_110_185">
<rect width="431" height="163.202" fill="white"/>
</clipPath>
</defs>
</svg>
